<?xml version="1.0" standalone="no"?>
<!DOCTYPE svg PUBLIC "-//W3C//DTD SVG 20010904//EN"
 "http://www.w3.org/TR/2001/REC-SVG-20010904/DTD/svg10.dtd">
<svg version="1.0" xmlns="http://www.w3.org/2000/svg"
 width="90.000000pt" height="90.000000pt" viewBox="0 0 90.000000 90.000000"
 preserveAspectRatio="xMidYMid meet">
<metadata>
Created by potrace 1.14, written by Peter Selinger 2001-2017
</metadata>
<g transform="translate(0.000000,90.000000) scale(0.100000,-0.100000)"
fill="#000000" stroke="none">
<path d="M374 889 c-4 -7 0 -16 9 -21 27 -15 47 -38 53 -64 10 -38 6 -39 -96
-31 -43 4 -80 -6 -108 -28 -33 -26 -42 -38 -42 -55 0 -10 -13 -26 -28 -35 -27
-16 -77 -85 -95 -129 -5 -12 -11 -48 -14 -82 -17 -190 103 -368 285 -424 200
-63 416 44 494 242 30 76 33 205 6 277 -24 63 -74 140 -97 149 -9 3 -23 13
-31 22 -24 27 -80 52 -155 70 -60 14 -72 21 -84 46 -29 61 -78 93 -97 63z
m-76 -165 c-9 -9 -22 -14 -30 -11 -8 3 -4 8 12 15 35 15 37 14 18 -4z"/>
</g>
</svg>
